<svg width="70" height="70" viewBox="0 0 70 70" fill="none" xmlns="http://www.w3.org/2000/svg">
<path d="M13.3593 39.6295C14.6246 36.7524 21.072 25.8437 21.072 23.9257C21.072 23.2663 20.8309 22.5471 20.4996 22.5471C19.9573 22.5471 15.1067 30.5789 11.7926 38.5507C10.3164 38.7904 8.96059 38.9103 7.93626 38.9702C8.59906 37.5316 9.29204 36.1831 9.98492 34.8945L10.8285 33.336C13.2387 28.8707 15.3477 25.7838 15.3477 23.9257C15.3477 23.2663 15.1067 22.5471 14.7753 22.5471C13.8412 22.5471 7.21321 35.4339 6.00803 38.9702C4.83311 39.1201 3.29666 39.4497 2.15173 39.8094C3.86894 36.213 4.56192 34.8344 5.04395 33.9355C7.36389 29.47 9.4728 26.3832 9.4728 24.3453C9.4728 23.656 9.23169 22.9367 8.87025 22.9367C8.17728 22.9367 4.47158 29.9496 2.54343 34.0853C0.85621 37.7415 0.735701 38.251 0.554937 38.7306C0.253663 39.5397 0.253664 39.9292 0.524854 40.4387C0.735701 40.8283 0.916464 41.2779 1.15757 41.5475C1.51901 41.9972 1.85046 41.9972 2.42283 41.8473C4.11005 41.3977 7.39397 40.6785 8.71957 40.6486C10.2561 40.6185 11.4009 40.4987 12.3952 40.4387C12.9676 40.3489 13.1183 40.1691 13.3593 39.6295Z" fill="#71B639"/>
<path d="M32.6713 24.7948C33.0328 24.8548 33.0931 24.645 33.0027 24.4052C32.6411 23.4163 31.9783 22.9068 30.713 22.9368C29.0259 22.9667 25.7118 23.8358 23.2112 23.686C22.9099 23.656 22.8195 23.7759 22.8798 24.0456C23.0605 24.675 23.3919 25.2743 24.1451 25.574C21.6144 29.4701 18.6016 35.0443 17.2157 38.7305C16.9145 39.5397 16.9145 39.9292 17.1856 40.4388C17.3965 40.8284 17.5773 41.2778 17.8182 41.5475C18.1798 41.9972 18.5112 41.9972 19.0837 41.8473C20.7708 41.3978 24.0547 40.6185 25.7418 40.6485C26.1034 40.6485 26.1335 40.4686 26.0431 40.199C25.7118 39.2999 24.9585 38.8204 23.4823 38.8803C22.2471 38.9404 20.2587 39.3598 18.8125 39.8094C19.4452 38.4008 20.2587 36.7525 21.1323 35.0743C22.8195 34.6547 25.0791 34.2351 26.7059 34.2351C27.0976 34.2351 27.0976 34.0553 27.0072 33.7856C26.7059 32.8565 26.0431 32.377 24.5368 32.437C23.9945 32.4669 23.2112 32.5269 22.3978 32.6768C23.874 30.0095 25.3502 27.4022 26.5554 25.604C28.3931 25.3044 30.502 24.7649 32.6713 24.7948Z" fill="#71B639"/>
<path d="M37.2139 35.7698C39.1925 31.978 41.2896 28.1799 42.4027 26.2334C42.9711 25.2339 43.2959 24.3963 43.4458 23.6972C45.0998 23.9624 45.747 24.7773 45.747 26.4432C45.747 30.7749 41.5144 35.0313 37.2139 35.7698ZM32.1593 32.6767C32.1593 28.7605 37.2643 24.1216 41.2854 23.64C39.3202 26.8698 36.5978 31.9252 34.7555 35.7995C32.9628 35.5225 32.1593 34.5302 32.1593 32.6767ZM47.8861 27.1024C47.8861 25.1289 46.1342 23.2397 43.5336 23.1224C43.5869 22.5094 43.4895 22.025 43.3066 21.6481C43.1258 21.2885 42.8547 21.2285 42.5836 21.6181C42.4018 21.8792 42.2024 22.1793 41.989 22.5116C41.7026 22.4759 41.3256 22.4572 40.806 22.4572C35.5638 22.4572 29.8696 26.3532 29.8696 32.1972C29.8696 34.1792 31.0112 36.1182 34.3344 36.6977C33.8053 37.8444 33.3747 38.8525 33.0933 39.6295C32.4305 41.4578 32.792 42.5065 33.2138 42.9562C33.4548 43.2259 33.5754 43.1959 33.6959 42.8963C34.4577 41.1938 35.5124 39.0633 36.6432 36.87C43.2398 36.8177 47.8861 32.3165 47.8861 27.1024Z" fill="#71B639"/>
<path d="M47.9766 35.9434C48.0369 38.4008 49.2119 40.2589 50.5676 40.9782C52.1944 41.8473 54.7252 41.8773 56.8642 40.3489C58.1296 39.4498 60.0578 37.2021 59.3046 35.1941C59.1539 34.8046 58.8226 34.8046 58.6719 35.1342C56.3823 39.5996 53.1887 41.6075 51.2605 40.0491C49.7842 38.8505 49.483 34.415 52.1342 30.0394C54.8457 25.5741 59.4251 23.1465 60.2686 24.0456C60.9616 24.7649 59.877 26.4732 59.3951 28.0615C58.943 29.56 59.4251 30.489 60.1181 30.9385C60.4796 31.1783 60.6905 30.9984 60.7809 30.7587C61.1123 29.8896 61.5341 28.7209 61.986 27.7917C62.4379 26.8627 62.5283 26.0236 62.2571 25.1545C62.0161 24.4053 61.3231 23.5361 60.6603 22.9668C59.6962 22.1276 58.22 22.2474 56.5931 22.8768C53.2188 24.1655 47.856 29.5899 47.9766 35.9434Z" fill="#71B639"/>
<path d="M39.1332 44.5764C37.4568 46.8604 37.0519 47.8941 36.5846 49.562C36.2669 50.6805 36.4051 51.2481 36.73 51.5338C36.8817 51.6682 37.0424 51.6222 37.0945 51.4749C38.4545 48.0763 39.0148 47.5549 39.6848 46.1804C40.0831 45.3632 39.8736 44.9621 39.6879 44.6135C39.5248 44.2996 39.3028 44.3496 39.1332 44.5764Z" fill="#71B639"/>
<path d="M63.4529 44.1506C64.0154 43.6651 64.9437 43.4628 65.0821 44.0304C65.1635 44.3494 65.1105 44.8029 65.003 45.3678C64.8945 45.9149 64.5427 46.8194 64.2687 47.3407C63.3746 49.0534 62.1716 49.7591 61.5746 49.3823C61.0199 49.0209 61.2211 47.3517 61.9906 45.9349C62.3753 45.2266 62.9288 44.5975 63.4529 44.1506ZM53.6406 50.0956C52.8447 50.1277 53.0096 48.5326 53.992 46.9224C55.0116 45.2559 56.4253 43.9967 57.0809 44.0098C57.6752 44.0265 57.5622 45.15 56.4035 47.2035C55.4641 48.8469 54.4773 50.0613 53.6406 50.0956ZM68.099 39.0153C68.716 38.4184 68.8403 37.4743 68.6908 37.0515C68.616 36.8401 68.4937 36.8478 68.3816 37.0168C67.7694 38.0096 66.762 38.5769 65.9118 39.0445C63.2845 40.4865 62.1331 42.016 60.5815 45.5824C60.202 46.3422 59.9901 47.1133 60.0165 47.8081C59.3804 48.9119 58.4932 49.9042 57.766 49.9812C57.0754 50.0605 57.047 49.288 57.4927 48.2516C57.9216 47.2703 58.8552 45.8613 59.2524 45.0261C59.6848 44.0985 59.4729 43.3375 59.1469 43.0337C58.9939 42.8813 58.8331 42.9274 58.6645 43.1722C58.4586 43.4732 58.2379 43.8652 58.0002 44.3122C57.9968 43.6102 57.5517 43.0439 56.6754 43.0988C55.6564 43.1625 54.0978 44.0706 52.5811 46.2906C51.8981 47.2912 51.6183 48.2872 51.6798 49.0796C51.1473 49.8195 50.5645 50.373 50.0199 50.4306C49.2275 50.5164 49.1084 49.9295 49.51 48.842L50.8791 44.9387C51.1042 44.2943 51.0406 43.614 50.7146 43.3102C50.5401 43.1412 50.196 43.1987 50.0081 43.4627L48.0537 46.5203C46.1003 49.5959 45.17 50.7346 44.6402 50.7679C44.384 50.784 44.2729 50.4985 44.2898 50.1036C44.5181 49.825 44.6962 49.5408 44.8332 49.2972C45.1106 48.8297 45.124 48.3966 45.0085 48.1878C44.8929 47.9789 44.7107 48.0083 44.602 48.2313C44.5349 48.3741 44.46 48.5215 44.3791 48.6701C44.1329 48.7488 43.8142 48.9738 43.7069 49.2778C43.6305 49.4857 43.5685 49.7089 43.5337 49.9283C43.0954 50.4493 42.6165 50.8235 42.1878 50.8135C41.409 50.7903 40.7736 49.8037 40.5989 48.338C42.7486 47.3931 43.611 46.4746 44.2538 45.3178C44.6579 44.5902 44.2172 43.7715 43.6842 44.3991C42.4663 45.8441 41.2032 46.8956 39.5062 47.5602C39.1269 47.71 39.0885 47.7484 39.1089 48.0714C39.2216 50.4952 40.4887 51.4422 41.9162 51.3707C42.6048 51.3353 43.1563 51.0938 43.5972 50.7684C43.7444 51.1045 44.0829 51.3251 44.7341 51.2842C45.8346 51.2152 47.0841 49.9484 48.6323 46.9342L48.7964 46.9419C47.2223 50.1919 47.9358 51.1196 49.8106 51.0021C50.569 50.9546 51.3446 50.5269 51.9321 49.9526C52.2207 50.4548 52.7405 50.7464 53.4539 50.7016C54.432 50.6404 55.3071 49.9192 55.9125 49.1431C55.9659 49.986 56.5729 50.5242 57.6767 50.509C58.6504 50.4948 59.6962 49.6921 60.2626 48.815C60.3614 49.0141 60.489 49.2003 60.6531 49.3681C61.5274 50.2496 62.5508 50.2575 63.2708 49.9964C64.7504 49.4534 65.9817 47.5756 66.2508 46.0101C66.3401 45.4822 66.3117 45.3579 66.3231 45.2132C66.3635 43.9142 65.7443 43.8268 65.2403 43.3002C64.8021 42.8415 64.4455 42.7017 63.8159 42.7772C63.3892 42.8292 62.9681 43.0022 62.5704 43.2568C63.7646 40.9647 66.9545 40.1584 68.099 39.0153Z" fill="#71B639"/>
<path d="M16.9669 18.5313C17.0184 18.5417 17.0699 18.5522 17.1215 18.5627C17.3777 18.615 17.6409 18.5277 17.8179 18.336C22.3486 13.4353 28.8437 10.3586 36.0487 10.3586C43.0145 10.3586 49.317 13.2345 53.822 17.8543C54.0689 18.1074 54.4608 18.1455 54.7584 17.9538C54.7602 17.9527 54.7619 17.9516 54.7637 17.9504C54.7973 17.9288 54.831 17.9072 54.8648 17.8856C55.258 17.6341 55.3266 17.0874 55.0014 16.7532C50.2009 11.8209 43.4788 8.74998 36.0487 8.74998C28.3431 8.74998 21.3986 12.0526 16.5697 17.3092C16.1806 17.7329 16.4016 18.4167 16.9669 18.5313Z" fill="#71B639"/>
<path d="M52.6307 53.9365C52.6255 53.934 52.6201 53.9315 52.6147 53.929C52.332 53.7955 51.9993 53.8403 51.7574 54.0381C47.4794 57.5374 42.0067 59.6414 36.0487 59.6414C25.4167 59.6414 16.3279 52.9441 12.8214 43.5679C12.6761 43.1794 12.257 42.9662 11.8561 43.0789C11.8507 43.0804 11.8455 43.0819 11.8404 43.0833C11.3913 43.2092 11.1421 43.6889 11.3047 44.1239C15.0393 54.1137 24.7215 61.25 36.0487 61.25C42.4011 61.25 48.2362 59.0054 52.7952 55.2718C53.2483 54.9008 53.1608 54.187 52.6307 53.9365Z" fill="#71B639"/>
</svg>
